<?xml version="1.0" encoding="utf-8"?>
<!-- Generator: Adobe Illustrator 16.0.0, SVG Export Plug-In . SVG Version: 6.00 Build 0)  -->
<!DOCTYPE svg PUBLIC "-//W3C//DTD SVG 1.1//EN" "http://www.w3.org/Graphics/SVG/1.1/DTD/svg11.dtd">
<svg version="1.1" id="Layer_1" xmlns="http://www.w3.org/2000/svg" xmlns:xlink="http://www.w3.org/1999/xlink" x="0px" y="0px"
	 width="500px" height="200px" viewBox="0 0 500 200" enable-background="new 0 0 500 200" xml:space="preserve">
<g>
	<path d="M142.798,76.273l-16.442-16.43C120.022,53.488,111.599,50,102.638,50c-8.952,0-17.375,3.488-23.726,9.844l-16.426,16.43
		C56.136,82.615,52.65,91.043,52.65,100c0,8.956,3.485,17.38,9.836,23.722l16.426,16.426c6.351,6.367,14.774,9.853,23.726,9.853
		c8.712,0,16.987-3.336,23.271-9.382l0.042-0.032l0.032-0.042l16.814-16.822c6.351-6.342,9.844-14.766,9.844-23.722
		C152.642,91.043,149.149,82.615,142.798,76.273z M131.864,111.888l-16.665,16.657c-3.122,3.006-7.383,4.855-12.04,4.855
		c-4.79,0-9.126-1.94-12.273-5.07l8.101-8.127c1.066,1.074,2.545,1.743,4.172,1.743s3.105-0.669,4.161-1.743l16.451-16.417
		c1.049-1.065,1.718-2.548,1.718-4.171c0-1.639-0.669-3.104-1.718-4.162c-1.073-1.061-2.543-1.729-4.187-1.729
		c-1.618,0-3.088,0.669-4.154,1.729l-16.443,16.435c-3.145,3.13-7.481,5.087-12.262,5.087c-4.791,0-9.126-1.957-12.272-5.087
		c-3.146-3.146-5.079-7.481-5.079-12.272c0-4.785,1.932-9.121,5.079-12.271l16.434-16.426c3.147-3.134,7.483-5.104,12.273-5.104
		c4.781,0,9.125,1.97,12.271,5.104l-8.11,8.089c-1.056-1.062-2.534-1.718-4.161-1.718s-3.106,0.656-4.172,1.718L82.554,95.453
		c-1.057,1.058-1.718,2.523-1.718,4.162c0,1.623,0.661,3.105,1.718,4.171c1.065,1.065,2.535,1.718,4.171,1.718
		c1.634,0,3.096-0.652,4.161-1.718l16.434-16.442c3.156-3.134,7.483-5.083,12.264-5.083c4.79,0,9.134,1.949,12.28,5.083
		c3.138,3.15,5.087,7.486,5.087,12.271C136.952,104.406,135.002,108.741,131.864,111.888z"/>
	<g>
		<path d="M388.302,124.572c-2.023,0-3.667-1.651-3.667-3.675V75.361c0-2.036,1.644-3.68,3.667-3.68c2.04,0,3.691,1.644,3.691,3.68
			v45.536C391.993,122.921,390.342,124.572,388.302,124.572z"/>
		<path d="M262.371,114.06c-1.496-1.197-3.65-0.975-4.864,0.512c-3.312,4.097-11.496,3.105-13.635,2.229
			c-3.063-1.246-4.616-3.807-4.616-7.598V84.268h16.27c2.022,0,3.666-1.647,3.666-3.675c0-2.036-1.643-3.684-3.666-3.684h-16.27
			V58.266c0-1.916-1.544-3.455-3.46-3.455c-1.899,0-3.443,1.539-3.443,3.455v50.938c0,6.574,3.245,11.678,8.901,13.982
			c1.801,0.734,4.633,1.305,7.746,1.305c4.906,0,10.473-1.379,13.875-5.574C264.08,117.43,263.849,115.266,262.371,114.06z"/>
		<path d="M205.818,124.779c-1.124,0-2.263-0.066-3.444-0.215c-12.04-1.537-19.234-7.062-19.234-14.799
			c0-2.023,1.645-3.676,3.684-3.676c2.023,0,3.684,1.652,3.684,3.676c0,3.559,5.021,6.508,12.776,7.482
			c7.828,0.998,13.329-2.875,14.129-5.922c0.455-1.775,0.281-3.443-0.503-4.699c-0.859-1.387-2.444-2.329-4.7-2.791
			c-15.707-2.779-26.12-5.352-27.624-15.27c-0.545-3.617,0.496-7.164,2.939-10.01c3.412-3.98,9.299-6.256,16.17-6.256
			c12.619,0,20.77,5.645,20.77,14.387c0,2.035-1.651,3.688-3.683,3.688c-2.04,0-3.683-1.652-3.683-3.688
			c0-5.182-7.218-7.023-13.403-7.023c-4.642,0-8.597,1.387-10.587,3.688c-1.049,1.23-1.461,2.617-1.238,4.107
			c0.561,3.688,3.947,5.984,21.677,9.121l0.1,0.018c5.401,1.123,8.159,3.951,9.513,6.148c1.875,3.006,2.354,6.705,1.362,10.455
			C222.929,119.262,215.687,124.779,205.818,124.779z"/>
		<path d="M290.639,124.779c-14.535,0-26.336-11.777-26.336-26.246c0-14.464,11.802-26.232,26.336-26.232
			c13.23,0,24.461,9.873,26.112,22.951c0.215,1.738-0.727,3.104-1.305,3.761c-0.933,1.049-2.114,1.627-3.336,1.627h-40.317
			c1.048,9.423,9.092,16.772,18.845,16.772c6.532,0,13.072-3.353,15.88-8.143c1.033-1.75,3.279-2.346,5.038-1.312
			c1.759,1.031,2.354,3.278,1.322,5.037C308.75,120.039,299.806,124.779,290.639,124.779z M272.421,93.266h36.419
			c-2.295-7.933-9.67-13.602-18.201-13.602C282.009,79.664,274.717,85.416,272.421,93.266z"/>
		<path d="M349.884,72.301c-7.408,0-14.104,3.094-18.87,8.04v-4.423c0-2.043-1.66-3.683-3.683-3.683c-2.04,0-3.675,1.64-3.675,3.683
			v63.057c0,2.023,1.635,3.676,3.675,3.676c2.023,0,3.683-1.652,3.683-3.676v-22.239c4.765,4.955,11.462,8.044,18.87,8.044
			c14.477,0,26.238-11.777,26.238-26.246C376.122,84.069,364.361,72.301,349.884,72.301z M349.884,117.412
			c-10.413,0-18.87-8.473-18.87-18.879c0-10.4,8.457-18.869,18.87-18.869c10.406,0,18.879,8.469,18.879,18.869
			C368.763,108.939,360.29,117.412,349.884,117.412z"/>
		<path d="M440.817,124.383c-3.626,0-7.177-1.586-10.546-4.716c-2.527-2.362-18.458-18.503-19.143-19.188
			c-0.693-0.701-1.074-1.643-1.057-2.621c0-0.975,0.397-1.908,1.107-2.598l22-21.521c1.469-1.438,3.798-1.396,5.219,0.054
			s1.396,3.77-0.066,5.211l-19.357,18.929c4.741,4.798,14.501,14.633,16.318,16.352c2.015,1.857,3.947,2.783,5.657,2.732
			c0.512-0.008,1.677-0.008,2.733-0.008c2.032,0,3.667,1.66,3.667,3.691s-1.651,3.643-3.692,3.666c-0.967,0-2.023-0.016-2.486,0.018
			C441.048,124.383,440.933,124.383,440.817,124.383z"/>
		<path d="M405.198,124.548c-2.032,0-3.683-1.636-3.683-3.675V58.246c0-2.027,1.651-3.676,3.683-3.676
			c2.04,0,3.684,1.648,3.684,3.676v62.627C408.882,122.912,407.238,124.548,405.198,124.548z"/>
		<path fill-rule="evenodd" clip-rule="evenodd" d="M388.401,64.246c2.609,0,4.715-2.103,4.715-4.721
			c0-2.593-2.105-4.711-4.715-4.711c-2.602,0-4.724,2.118-4.724,4.711C383.677,62.144,385.799,64.246,388.401,64.246z"/>
	</g>
</g>
</svg>
